<svg width="13" height="13" viewBox="0 0 13 13" fill="none" xmlns="http://www.w3.org/2000/svg">
<path id="Vector" d="M11.305 7.47069H7.33026V11.8872C7.33026 12.1215 7.24651 12.3461 7.09743 12.5118C6.94835 12.6774 6.74615 12.7705 6.53532 12.7705C6.32449 12.7705 6.12229 12.6774 5.97321 12.5118C5.82413 12.3461 5.74037 12.1215 5.74037 11.8872V7.47069H1.76565C1.55482 7.47069 1.35262 7.37763 1.20354 7.21198C1.05446 7.04633 0.970703 6.82166 0.970703 6.58739C0.970703 6.35313 1.05446 6.12846 1.20354 5.9628C1.35262 5.79715 1.55482 5.70409 1.76565 5.70409H5.74037V1.2876C5.74037 1.05333 5.82413 0.82866 5.97321 0.663009C6.12229 0.497358 6.32449 0.404297 6.53532 0.404297C6.74615 0.404297 6.94835 0.497358 7.09743 0.663009C7.24651 0.82866 7.33026 1.05333 7.33026 1.2876V5.70409H11.305C11.5158 5.70409 11.718 5.79715 11.8671 5.9628C12.0162 6.12846 12.0999 6.35313 12.0999 6.58739C12.0999 6.82166 12.0162 7.04633 11.8671 7.21198C11.718 7.37763 11.5158 7.47069 11.305 7.47069Z" fill="#8C8C8C"/>
</svg>
