<svg width="8" height="8" viewBox="0 0 8 8" fill="none" xmlns="http://www.w3.org/2000/svg">
<path d="M4.88034 3.91759L7.49755 1.30027C7.56954 1.22822 7.60926 1.1321 7.60938 1.0296C7.60938 0.927052 7.56965 0.830816 7.49755 0.758881L7.2682 0.529589C7.19609 0.457369 7.09997 0.417816 6.99736 0.417816C6.89492 0.417816 6.7988 0.457369 6.72669 0.529589L4.10949 3.14673L1.49217 0.529589C1.42018 0.457369 1.324 0.417816 1.22145 0.417816C1.11901 0.417816 1.02283 0.457369 0.950838 0.529589L0.721375 0.758881C0.572042 0.908215 0.572042 1.15111 0.721375 1.30027L3.33864 3.91759L0.721375 6.53479C0.649326 6.60695 0.60966 6.70308 0.60966 6.80557C0.60966 6.90807 0.649326 7.00419 0.721375 7.0763L0.950782 7.30559C1.02277 7.37775 1.11901 7.41736 1.22139 7.41736C1.32394 7.41736 1.42012 7.37775 1.49211 7.30559L4.10943 4.68839L6.72664 7.30559C6.79874 7.37775 6.89486 7.41736 6.9973 7.41736H6.99742C7.09991 7.41736 7.19603 7.37775 7.26814 7.30559L7.49749 7.0763C7.56948 7.00425 7.6092 6.90807 7.6092 6.80557C7.6092 6.70308 7.56948 6.60695 7.49749 6.53485L4.88034 3.91759Z" fill="#666666"/>
</svg>
