<svg width="25" height="25" viewBox="0 0 25 25" fill="none" xmlns="http://www.w3.org/2000/svg">
<path d="M4.16667 12.5H3.125V8.33333C3.125 7.18274 4.05774 6.25 5.20833 6.25H9.375M4.16667 12.5V18.75C4.16667 19.9006 5.09941 20.8333 6.25 20.8333H18.75C19.9006 20.8333 20.8333 19.9006 20.8333 18.75V12.5M4.16667 12.5H10.4167M9.375 6.25V5.20833C9.375 4.05774 10.3077 3.125 11.4583 3.125H13.5417C14.6923 3.125 15.625 4.05774 15.625 5.20833V6.25M9.375 6.25H15.625M20.8333 12.5H21.875V8.33333C21.875 7.18274 20.9423 6.25 19.7917 6.25H15.625M20.8333 12.5H14.5833M10.4167 12.5V10.4167H14.5833V12.5M10.4167 12.5V14.5833H14.5833V12.5" stroke="white" stroke-width="2" stroke-linecap="round" stroke-linejoin="round"/>
</svg>
