<svg xmlns="http://www.w3.org/2000/svg" width="24" height="24" viewBox="0 0 24 24" fill="none">
<path d="M12 17.0144C13.1256 17.0144 14.0781 16.6255 14.8576 15.8477C15.6371 15.07 16.0269 14.1166 16.0269 12.9875C16.0269 11.865 15.6371 10.9141 14.8576 10.1346C14.0781 9.3551 13.1256 8.96535 12 8.96535C10.8743 8.96535 9.92256 9.3551 9.14468 10.1346C8.3668 10.9141 7.97785 11.865 7.97785 12.9875C7.97785 14.1166 8.3668 15.07 9.14468 15.8477C9.92256 16.6255 10.8743 17.0144 12 17.0144ZM11.9963 15.6154C11.2538 15.6154 10.6316 15.3633 10.1297 14.8591C9.62783 14.3549 9.37688 13.7328 9.37688 12.9926C9.37688 12.2524 9.62793 11.6293 10.13 11.1233C10.6321 10.6174 11.2545 10.3644 11.9973 10.3644C12.74 10.3644 13.3641 10.6174 13.8696 11.1233C14.3751 11.6293 14.6279 12.2524 14.6279 12.9926C14.6279 13.7328 14.3749 14.3549 13.8689 14.8591C13.3629 15.3633 12.7387 15.6154 11.9963 15.6154ZM4.40653 20.298C3.93398 20.298 3.53174 20.132 3.1998 19.8001C2.86787 19.4682 2.7019 19.0657 2.7019 18.5926V7.3948C2.7019 6.92174 2.86787 6.51924 3.1998 6.1873C3.53174 5.85537 3.93468 5.6894 4.40863 5.6894H7.46248L8.76248 4.2644C8.91725 4.08812 9.10521 3.9503 9.32638 3.85095C9.54753 3.75159 9.78295 3.7019 10.0327 3.7019H13.9721C14.2176 3.7019 14.4512 3.75159 14.6728 3.85095C14.8945 3.9503 15.0843 4.08812 15.2423 4.2644L16.5374 5.6894H19.5913C20.0652 5.6894 20.4682 5.85537 20.8001 6.1873C21.132 6.51924 21.298 6.92174 21.298 7.3948V18.5926C21.298 19.0657 21.132 19.4682 20.8001 19.8001C20.4682 20.132 20.0659 20.298 19.5934 20.298H4.40653ZM4.40863 18.899H19.5913C19.681 18.899 19.7548 18.8702 19.8125 18.8125C19.8702 18.7548 19.899 18.681 19.899 18.5913V7.39613C19.899 7.30958 19.8702 7.23665 19.8125 7.17735C19.7548 7.11805 19.681 7.0884 19.5913 7.0884H15.917L14.1044 5.1009H9.90173L8.0913 7.0884H4.40863C4.31888 7.0884 4.24515 7.11805 4.18745 7.17735C4.12975 7.23665 4.1009 7.30958 4.1009 7.39613V18.5913C4.1009 18.681 4.12975 18.7548 4.18745 18.8125C4.24515 18.8702 4.31888 18.899 4.40863 18.899Z" fill="#ffffff"/>
</svg>