<svg width="24" height="24" viewBox="0 0 24 24" fill="none" xmlns="http://www.w3.org/2000/svg">
<path d="M3.50968 18.4471C3.03733 18.4471 2.63479 18.2807 2.30205 17.948C1.96934 17.6153 1.80298 17.2127 1.80298 16.7403V7.25482C1.80298 6.78567 1.96934 6.38393 2.30205 6.0496C2.63479 5.71526 3.03733 5.5481 3.50968 5.5481H12.9952C13.4644 5.5481 13.8661 5.71526 14.2004 6.0496C14.5348 6.38393 14.7019 6.78567 14.7019 7.25482V16.7403C14.7019 17.2127 14.5348 17.6153 14.2004 17.948C13.8661 18.2807 13.4644 18.4471 12.9952 18.4471H3.50968ZM17.6586 10.9471C17.4163 10.9471 17.2132 10.8651 17.0491 10.701C16.885 10.5369 16.8029 10.3337 16.8029 10.0914V6.40862C16.8029 6.16635 16.885 5.96237 17.0491 5.79667C17.2132 5.63095 17.4163 5.5481 17.6586 5.5481H21.3414C21.5836 5.5481 21.7876 5.63095 21.9534 5.79667C22.1191 5.96237 22.2019 6.16635 22.2019 6.40862V10.0914C22.2019 10.3337 22.1191 10.5369 21.9534 10.701C21.7876 10.8651 21.5836 10.9471 21.3414 10.9471H17.6586ZM18.2019 9.5481H20.8029V6.94712H18.2019V9.5481ZM3.50968 17.0481H12.9952C13.0818 17.0481 13.1547 17.0192 13.214 16.9615C13.2733 16.9038 13.3029 16.8301 13.3029 16.7403V7.25482C13.3029 7.16829 13.2733 7.09537 13.214 7.03607C13.1547 6.97677 13.0818 6.94712 12.9952 6.94712H3.50968C3.41993 6.94712 3.3462 6.97677 3.2885 7.03607C3.23082 7.09537 3.20198 7.16829 3.20198 7.25482V16.7403C3.20198 16.8301 3.23082 16.9038 3.2885 16.9615C3.3462 17.0192 3.41993 17.0481 3.50968 17.0481ZM5.30293 14.899H11.196C11.3692 14.899 11.4968 14.8224 11.5789 14.6692C11.6609 14.516 11.6477 14.3643 11.539 14.2141L9.96638 12.1144C9.87856 12.0022 9.76415 11.9461 9.62313 11.9461C9.4821 11.9461 9.36895 12.0022 9.2837 12.1144L7.75005 14.1577L6.71638 12.7894C6.62856 12.6772 6.51415 12.6211 6.37313 12.6211C6.2321 12.6211 6.11775 12.6776 6.0301 12.7904L4.96223 14.2183C4.85283 14.3657 4.8402 14.516 4.92433 14.6692C5.00846 14.8224 5.13466 14.899 5.30293 14.899ZM17.6586 18.4471C17.4163 18.4471 17.2132 18.365 17.0491 18.2009C16.885 18.0368 16.8029 17.8336 16.8029 17.5914V13.9086C16.8029 13.6663 16.885 13.4623 17.0491 13.2966C17.2132 13.1309 17.4163 13.0481 17.6586 13.0481H21.3414C21.5836 13.0481 21.7876 13.1309 21.9534 13.2966C22.1191 13.4623 22.2019 13.6663 22.2019 13.9086V17.5914C22.2019 17.8336 22.1191 18.0368 21.9534 18.2009C21.7876 18.365 21.5836 18.4471 21.3414 18.4471H17.6586ZM18.2019 17.0481H20.8029V14.4471H18.2019V17.0481Z" fill="black"/>
</svg>
