<svg width="24" height="24" viewBox="0 0 24 24" fill="none" xmlns="http://www.w3.org/2000/svg">
<path d="M9.60608 19.8075V17.225C9.60606 16.5681 10.1416 16.0344 10.8051 16.03H13.2354C13.9021 16.03 14.4425 16.565 14.4425 17.225V17.225V19.8155C14.4424 20.3732 14.892 20.829 15.4552 20.8421H17.0754C18.6906 20.8421 20 19.5458 20 17.9468V17.9468V10.6003C19.9914 9.97122 19.693 9.3805 19.1899 8.99624L13.6486 4.5771C12.6778 3.80763 11.2979 3.80763 10.3271 4.5771L4.81013 9.00426C4.30506 9.38697 4.00622 9.97867 4 10.6083V17.9468C4 19.5458 5.30937 20.8421 6.92456 20.8421H8.54481C9.12198 20.8421 9.58987 20.3789 9.58987 19.8075V19.8075" stroke="white" stroke-width="1.5" stroke-linecap="round" stroke-linejoin="round"/>
</svg>
