<svg width="40" height="40" viewBox="0 0 40 40" fill="none" xmlns="http://www.w3.org/2000/svg">
<path opacity="0.4" d="M19.9987 36.6663C10.794 36.6663 3.33203 29.2043 3.33203 19.9997C3.33203 10.7949 10.794 3.33301 19.9987 3.33301C29.2034 3.33301 36.6654 10.7949 36.6654 19.9997C36.6654 29.2043 29.2034 36.6663 19.9987 36.6663Z" fill="#666666"/>
<path d="M22.1018 27.1336C22.4185 27.1336 22.7352 27.017 22.9852 26.767C23.4685 26.2836 23.4685 25.4837 22.9852 25.0003L17.9852 20.0003L22.9852 15.0003C23.4685 14.5169 23.4685 13.7169 22.9852 13.2336C22.5018 12.7503 21.7018 12.7503 21.2185 13.2336L15.3352 19.117C14.8518 19.6003 14.8518 20.4003 15.3352 20.8837L21.2185 26.767C21.4685 27.017 21.7852 27.1336 22.1018 27.1336Z" fill="white"/>
</svg>
